<svg xmlns="http://www.w3.org/2000/svg" width="111.197" height="111.2" viewBox="0 0 111.197 111.2"><g data-name="google marketing" transform="translate(.025 .025)"><path fill="#fbbc04" d="M392.2,1561.468a13.912,13.912,0,0,1,0-19.668,27.81,27.81,0,0,1-39.331,0,13.907,13.907,0,0,1-19.668,19.668,55.688,55.688,0,0,0,78.667,0,13.912,13.912,0,0,1-19.668,0Z" data-name="Path 235" transform="translate(-316.958 -1466.559)"/><path fill="#4184f3" d="M94.909,16.242A55.626,55.626,0,0,0,16.242,94.909,13.907,13.907,0,0,1,35.91,75.241,27.811,27.811,0,0,1,75.241,35.91,13.907,13.907,0,0,0,94.909,16.242Z" data-name="Path 236"/><circle cx="13.908" cy="13.908" r="13.908" fill="#34a853" data-name="Ellipse 30" transform="translate(12.166 71.165)"/><path fill="#ea4335" d="M1482.139,333.2a13.907,13.907,0,0,1-19.668,19.668,27.81,27.81,0,0,1,0,39.331,13.907,13.907,0,0,0,19.668,19.668,55.7,55.7,0,0,0,0-78.667Z" data-name="Path 237" transform="translate(-1387.23 -316.958)"/></g></svg>