<?xml version="1.0" encoding="iso-8859-1"?>
<!-- Generator: Adobe Illustrator 19.1.1, SVG Export Plug-In . SVG Version: 6.00 Build 0)  -->
<svg version="1.1"  xmlns="http://www.w3.org/2000/svg" xmlns:xlink="http://www.w3.org/1999/xlink" x="0px" y="0px"
	 viewBox="0 0 48 48" style="enable-background:new 0 0 48 48;" xml:space="preserve">
<path style="fill:#BBDEFB;" d="M5,39V15h38v24c0,2.209-1.791,4-4,4H9C6.791,43,5,41.209,5,39"/>
<path style="fill:#2196F3;" d="M43,11v6H5v-6c0-2.209,1.791-4,4-4h30C41.209,7,43,8.791,43,11"/>
<path style="fill:#1565C0;" d="M36,11c0,1.656-1.343,3-3,3c-1.657,0-3-1.344-3-3c0-1.656,1.343-3,3-3C34.657,8,36,9.344,36,11"/>
<path style="fill:#1565C0;" d="M18,11c0,1.656-1.343,3-3,3c-1.657,0-3-1.344-3-3c0-1.656,1.343-3,3-3C16.657,8,18,9.344,18,11"/>
<path style="fill:#B0BEC5;" d="M33,4c-1.105,0-2,0.897-2,2v5c0,1.104,0.895,2,2,2c1.103,0,2-0.896,2-2V6C35,4.897,34.103,4,33,4"/>
<path style="fill:#B0BEC5;" d="M15,4c-1.105,0-2,0.897-2,2v5c0,1.104,0.895,2,2,2c1.103,0,2-0.896,2-2V6C17,4.897,16.103,4,15,4"/>
<polygon style="fill:#1565C0;" points="24,22 25.959,27.067 31.466,27.342 27.173,30.75 28.665,36 24,33.052 19.332,36 
	20.827,30.75 16.533,27.342 22.039,27.067 "/>
<path style="fill:#43A047;" d="M48,38c0,5.523-4.478,10-10,10c-5.523,0-10-4.477-10-10s4.477-10,10-10C43.522,28,48,32.477,48,38"/>
<polygon style="fill:#DCEDC8;" points="42.492,33.35 36.802,39.051 34.074,36.33 31.951,38.457 36.806,43.301 44.619,35.473 "/>
</svg>
